<svg xmlns="http://www.w3.org/2000/svg" xml:space="preserve" viewBox="0 0 213 33.2"><path fill="#fff" d="M7.9 33 0 0h6l3 14.6c.6 3.6 1.5 7.8 2 11.8h.2c.5-4 1.2-8.1 2-11.9L15.8.1h6L14 33H8zM46.1 5h-6.4V0h18v5h-6.4v28H46V5zm29.7 13.1h-8.2v10h9.5V33h-15V0h14.1v5h-8.6v8.8h8.2v4.4zm6-17.3c2.2-.4 4.4-.7 7-.7 3.2 0 6.2.5 8.4 2.3a7.3 7.3 0 0 1 2.5 5.8c0 3-2 5.8-5 7.1v.2a8 8 0 0 1 6.2 8c0 2.7-1 4.8-2.6 6.4-2 2.1-5.5 3.1-10.5 3.1-2.6 0-4.2-.1-6-.3V.7zm5.6 13h1.7a5 5 0 0 0 5.2-5C94.3 6 92.9 4 89.4 4a7 7 0 0 0-2 .2v9.5zm0 15a5 5 0 0 0 1.8.2c3.4 0 6-1.8 6-5.6s-3-5.7-6-5.7h-1.8V29zm17.8-1.5a13 13 0 0 0 5.4 1.3c3.4 0 5.3-1.8 5.3-4.5 0-2.6-1.7-4.1-4.6-6-3.9-2.3-6.5-5.5-6.5-9C104.8 4 108.4 0 115 0c2.2 0 4.2.6 5.1 1.2l-1 4.4a8 8 0 0 0-4.2-1.1c-3.2 0-4.7 2-4.7 4 0 2.4 1.4 3.6 5 5.7 4.4 2.7 6.1 5.8 6.1 9.3 0 5.9-4.4 9.6-10.7 9.6-2.6 0-5.2-.7-6.3-1.4l1-4.4zM126.1.1h5.6v15.2c.7-1.2 1.3-2.8 2-4.2l5.4-11h6.1l-8 14.2 8.2 18.7h-6l-6-14.6-1.7 2.8V33h-5.6V0zm35.3.7a33 33 0 0 1 7-.7c3 0 6.1.5 8.2 2.3a7.2 7.2 0 0 1 2.5 5.8c0 3-1.8 5.8-5.2 7.1v.2c4.3 1 6.3 4 6.3 8 0 2.7-.9 4.8-2.5 6.4-2 2.1-5.5 3.1-10.5 3.1a41 41 0 0 1-5.8-.3V.7zm5.6 13h1.6a5 5 0 0 0 5.1-5c0-2.8-1.3-4.8-4.7-4.8-.9 0-1.6 0-2 .2v9.5zm0 15c.4.2 1 .2 1.7.2 3.4 0 5.9-1.8 5.9-5.6s-2.9-5.7-6-5.7H167V29zM191 .1V33h-5.5V0h5.6zm4.4 29.6L207 5h-10.7V.1H213V4l-11.2 24.1H213V33h-17.6v-3.3zM29.5 10.1h-2l-.5 2.4zM26 28.3l1.9 1.7 8.9-8.3-.6-2.9zm11.3-4.4-8 7.4 1.6 1.5 6.9-6.4zm-3-13.8h-2l-6 5.6-1 4.5 9.3-8.7zm.8 3.6-10.5 9.7-.6 3 .6.6 11.1-10.4z"/><circle cx="30.9" cy="3.6" r="3.5" fill="#fff"/><circle cx="153.1" cy="29.7" r="3.5" fill="#fff"/></svg>
